G04*
G04 #@! TF.GenerationSoftware,Altium Limited,Altium Designer,24.2.2 (26)*
G04*
G04 Layer_Color=16711935*
%FSLAX25Y25*%
%MOIN*%
G70*
G04*
G04 #@! TF.SameCoordinates,778AFC17-2929-4255-B4C3-65278F023F0D*
G04*
G04*
G04 #@! TF.FilePolarity,Negative*
G04*
G01*
G75*
%ADD13R,0.00787X0.00787*%
%ADD14C,0.07874*%
%ADD15O,0.10642X0.20485*%
%ADD16O,0.20485X0.10642*%
G04:AMPARAMS|DCode=17|XSize=70.99mil|YSize=157.61mil|CornerRadius=35.5mil|HoleSize=0mil|Usage=FLASHONLY|Rotation=180.000|XOffset=0mil|YOffset=0mil|HoleType=Round|Shape=RoundedRectangle|*
%AMROUNDEDRECTD17*
21,1,0.07099,0.08661,0,0,180.0*
21,1,0.00000,0.15761,0,0,180.0*
1,1,0.07099,0.00000,0.04331*
1,1,0.07099,0.00000,0.04331*
1,1,0.07099,0.00000,-0.04331*
1,1,0.07099,0.00000,-0.04331*
%
%ADD17ROUNDEDRECTD17*%
%ADD18C,0.22453*%
G04:AMPARAMS|DCode=19|XSize=102.49mil|YSize=70.99mil|CornerRadius=19.75mil|HoleSize=0mil|Usage=FLASHONLY|Rotation=90.000|XOffset=0mil|YOffset=0mil|HoleType=Round|Shape=RoundedRectangle|*
%AMROUNDEDRECTD19*
21,1,0.10249,0.03150,0,0,90.0*
21,1,0.06299,0.07099,0,0,90.0*
1,1,0.03950,0.01575,0.03150*
1,1,0.03950,0.01575,-0.03150*
1,1,0.03950,-0.01575,-0.03150*
1,1,0.03950,-0.01575,0.03150*
%
%ADD19ROUNDEDRECTD19*%
%ADD20C,0.25210*%
G04:AMPARAMS|DCode=30|XSize=126.11mil|YSize=70.99mil|CornerRadius=7.15mil|HoleSize=0mil|Usage=FLASHONLY|Rotation=0.000|XOffset=0mil|YOffset=0mil|HoleType=Round|Shape=RoundedRectangle|*
%AMROUNDEDRECTD30*
21,1,0.12611,0.05669,0,0,0.0*
21,1,0.11181,0.07099,0,0,0.0*
1,1,0.01430,0.05591,-0.02835*
1,1,0.01430,-0.05591,-0.02835*
1,1,0.01430,-0.05591,0.02835*
1,1,0.01430,0.05591,0.02835*
%
%ADD30ROUNDEDRECTD30*%
G04:AMPARAMS|DCode=31|XSize=158mil|YSize=118mil|CornerRadius=9.5mil|HoleSize=0mil|Usage=FLASHONLY|Rotation=180.000|XOffset=0mil|YOffset=0mil|HoleType=Round|Shape=RoundedRectangle|*
%AMROUNDEDRECTD31*
21,1,0.15800,0.09900,0,0,180.0*
21,1,0.13900,0.11800,0,0,180.0*
1,1,0.01900,-0.06950,0.04950*
1,1,0.01900,0.06950,0.04950*
1,1,0.01900,0.06950,-0.04950*
1,1,0.01900,-0.06950,-0.04950*
%
%ADD31ROUNDEDRECTD31*%
D13*
X-33858Y-34646D02*
D03*
Y-33071D02*
D03*
Y-31496D02*
D03*
X-32283Y-33071D02*
D03*
Y-31496D02*
D03*
X-30708Y-33071D02*
D03*
Y-31496D02*
D03*
X-29134D02*
D03*
X-27559D02*
D03*
X-25984D02*
D03*
X-24409D02*
D03*
X-22834D02*
D03*
X-32283Y-34646D02*
D03*
X-25984D02*
D03*
X-30708D02*
D03*
X-29134D02*
D03*
X-27559D02*
D03*
X-24409D02*
D03*
X-22834D02*
D03*
X-21260D02*
D03*
X-19685D02*
D03*
X-18110D02*
D03*
X-16536D02*
D03*
X-14961D02*
D03*
X-13386D02*
D03*
X-29134Y-33071D02*
D03*
X-22834D02*
D03*
X-27559D02*
D03*
X-25984D02*
D03*
X-24409D02*
D03*
X-21260D02*
D03*
X-19685D02*
D03*
X-18110D02*
D03*
X-16536D02*
D03*
X-14961D02*
D03*
X-13386D02*
D03*
X-11811D02*
D03*
X-10236D02*
D03*
X-14961Y-31496D02*
D03*
X-21260D02*
D03*
X-19685D02*
D03*
X-18110D02*
D03*
X-16536D02*
D03*
X-13386D02*
D03*
X-11811D02*
D03*
X-10236D02*
D03*
X-8661D02*
D03*
X-7087D02*
D03*
X-5512D02*
D03*
X-3937D02*
D03*
X-2363D02*
D03*
X-7087Y-34646D02*
D03*
X-11811D02*
D03*
X-10236D02*
D03*
X-8661D02*
D03*
X-5512D02*
D03*
X-3937D02*
D03*
X-2363D02*
D03*
X-3937Y-33071D02*
D03*
X-8661D02*
D03*
X-7087D02*
D03*
X-5512D02*
D03*
X-2363D02*
D03*
X40945Y-34646D02*
D03*
Y-33071D02*
D03*
Y-31496D02*
D03*
X42520Y-33071D02*
D03*
Y-31496D02*
D03*
X44095Y-33071D02*
D03*
Y-31496D02*
D03*
X45669D02*
D03*
X47244D02*
D03*
X48819D02*
D03*
X50394D02*
D03*
X51969D02*
D03*
X42520Y-34646D02*
D03*
X48819D02*
D03*
X44095D02*
D03*
X45669D02*
D03*
X47244D02*
D03*
X50394D02*
D03*
X51969D02*
D03*
X53543D02*
D03*
X55118D02*
D03*
X56693D02*
D03*
X58267D02*
D03*
X59842D02*
D03*
X61417D02*
D03*
X45669Y-33071D02*
D03*
X51969D02*
D03*
X47244D02*
D03*
X48819D02*
D03*
X50394D02*
D03*
X53543D02*
D03*
X55118D02*
D03*
X56693D02*
D03*
X58267D02*
D03*
X59842D02*
D03*
X61417D02*
D03*
X62992D02*
D03*
X64567D02*
D03*
X59842Y-31496D02*
D03*
X53543D02*
D03*
X55118D02*
D03*
X56693D02*
D03*
X58267D02*
D03*
X61417D02*
D03*
X62992D02*
D03*
X64567D02*
D03*
X66142D02*
D03*
X67716D02*
D03*
X69291D02*
D03*
X70866D02*
D03*
X72440D02*
D03*
X67716Y-34646D02*
D03*
X62992D02*
D03*
X64567D02*
D03*
X66142D02*
D03*
X69291D02*
D03*
X70866D02*
D03*
X72440D02*
D03*
X70866Y-33071D02*
D03*
X66142D02*
D03*
X67716D02*
D03*
X69291D02*
D03*
X72440D02*
D03*
X-71259Y-34646D02*
D03*
Y-33071D02*
D03*
Y-31496D02*
D03*
X-69685Y-33071D02*
D03*
Y-31496D02*
D03*
X-68110Y-33071D02*
D03*
Y-31496D02*
D03*
X-66535D02*
D03*
X-64961D02*
D03*
X-63386D02*
D03*
X-61811D02*
D03*
X-60236D02*
D03*
X-69685Y-34646D02*
D03*
X-63386D02*
D03*
X-68110D02*
D03*
X-66535D02*
D03*
X-64961D02*
D03*
X-61811D02*
D03*
X-60236D02*
D03*
X-58661D02*
D03*
X-57087D02*
D03*
X-55512D02*
D03*
X-53937D02*
D03*
X-52363D02*
D03*
X-50787D02*
D03*
X-66535Y-33071D02*
D03*
X-60236D02*
D03*
X-64961D02*
D03*
X-63386D02*
D03*
X-61811D02*
D03*
X-58661D02*
D03*
X-57087D02*
D03*
X-55512D02*
D03*
X-53937D02*
D03*
X-52363D02*
D03*
X-50787D02*
D03*
X-49213D02*
D03*
X-47638D02*
D03*
X-52363Y-31496D02*
D03*
X-58661D02*
D03*
X-57087D02*
D03*
X-55512D02*
D03*
X-53937D02*
D03*
X-50787D02*
D03*
X-49213D02*
D03*
X-47638D02*
D03*
X-46063D02*
D03*
X-44488D02*
D03*
X-42914D02*
D03*
X-41339D02*
D03*
X-39764D02*
D03*
X-44488Y-34646D02*
D03*
X-49213D02*
D03*
X-47638D02*
D03*
X-46063D02*
D03*
X-42914D02*
D03*
X-41339D02*
D03*
X-39764D02*
D03*
X-41339Y-33071D02*
D03*
X-46063D02*
D03*
X-44488D02*
D03*
X-42914D02*
D03*
X-39764D02*
D03*
X3544Y-34646D02*
D03*
Y-33071D02*
D03*
Y-31496D02*
D03*
X5119Y-33071D02*
D03*
Y-31496D02*
D03*
X6693Y-33071D02*
D03*
Y-31496D02*
D03*
X8268D02*
D03*
X9843D02*
D03*
X11417D02*
D03*
X12992D02*
D03*
X14567D02*
D03*
X5119Y-34646D02*
D03*
X11417D02*
D03*
X6693D02*
D03*
X8268D02*
D03*
X9843D02*
D03*
X12992D02*
D03*
X14567D02*
D03*
X16142D02*
D03*
X17717D02*
D03*
X19291D02*
D03*
X20866D02*
D03*
X22441D02*
D03*
X24016D02*
D03*
X8268Y-33071D02*
D03*
X14567D02*
D03*
X9843D02*
D03*
X11417D02*
D03*
X12992D02*
D03*
X16142D02*
D03*
X17717D02*
D03*
X19291D02*
D03*
X20866D02*
D03*
X22441D02*
D03*
X24016D02*
D03*
X25591D02*
D03*
X27165D02*
D03*
X22441Y-31496D02*
D03*
X16142D02*
D03*
X17717D02*
D03*
X19291D02*
D03*
X20866D02*
D03*
X24016D02*
D03*
X25591D02*
D03*
X27165D02*
D03*
X28740D02*
D03*
X30315D02*
D03*
X31889D02*
D03*
X33464D02*
D03*
X35039D02*
D03*
X30315Y-34646D02*
D03*
X25591D02*
D03*
X27165D02*
D03*
X28740D02*
D03*
X31889D02*
D03*
X33464D02*
D03*
X35039D02*
D03*
X33464Y-33071D02*
D03*
X28740D02*
D03*
X30315D02*
D03*
X31889D02*
D03*
X35039D02*
D03*
D14*
X-125984Y-161417D02*
D03*
X-157480Y-122047D02*
D03*
X0Y-68898D02*
D03*
D15*
X165354Y-120079D02*
D03*
X141732D02*
D03*
D16*
X153543Y-138583D02*
D03*
D17*
X-20669Y-129921D02*
D03*
X-73819D02*
D03*
X20669D02*
D03*
X73819D02*
D03*
D18*
X-33071Y-153543D02*
D03*
X-61417D02*
D03*
X33071D02*
D03*
X61417D02*
D03*
D19*
X-29528Y-47244D02*
D03*
X-49213D02*
D03*
X-39370D02*
D03*
X-19685D02*
D03*
X-9843D02*
D03*
X-78740D02*
D03*
X-68898D02*
D03*
X-59055D02*
D03*
X-108268D02*
D03*
X-98425D02*
D03*
X-88583D02*
D03*
X88583D02*
D03*
X98425D02*
D03*
X108268D02*
D03*
X59055D02*
D03*
X68898D02*
D03*
X78740D02*
D03*
X9843D02*
D03*
X19685D02*
D03*
X39370D02*
D03*
X49213D02*
D03*
X29528D02*
D03*
D20*
X114173Y-74803D02*
D03*
Y-19685D02*
D03*
X-114173D02*
D03*
Y-74803D02*
D03*
D30*
X-94882Y-137795D02*
D03*
X-113779D02*
D03*
X-94882Y-106299D02*
D03*
X-113779D02*
D03*
X94882Y-137795D02*
D03*
X113779D02*
D03*
X94882Y-106299D02*
D03*
X113779D02*
D03*
D31*
X0Y-153813D02*
D03*
Y-125715D02*
D03*
M02*
