G04*
G04 #@! TF.GenerationSoftware,Altium Limited,Altium Designer,24.2.2 (26)*
G04*
G04 Layer_Color=255*
%FSLAX25Y25*%
%MOIN*%
G70*
G04*
G04 #@! TF.SameCoordinates,778AFC17-2929-4255-B4C3-65278F023F0D*
G04*
G04*
G04 #@! TF.FilePolarity,Positive*
G04*
G01*
G75*
%ADD11C,0.03937*%
%ADD21O,0.09843X0.19685*%
%ADD22O,0.19685X0.09843*%
G04:AMPARAMS|DCode=23|XSize=62.99mil|YSize=149.61mil|CornerRadius=31.5mil|HoleSize=0mil|Usage=FLASHONLY|Rotation=180.000|XOffset=0mil|YOffset=0mil|HoleType=Round|Shape=RoundedRectangle|*
%AMROUNDEDRECTD23*
21,1,0.06299,0.08661,0,0,180.0*
21,1,0.00000,0.14961,0,0,180.0*
1,1,0.06299,0.00000,0.04331*
1,1,0.06299,0.00000,0.04331*
1,1,0.06299,0.00000,-0.04331*
1,1,0.06299,0.00000,-0.04331*
%
%ADD23ROUNDEDRECTD23*%
%ADD24C,0.21654*%
G04:AMPARAMS|DCode=25|XSize=94.49mil|YSize=62.99mil|CornerRadius=15.75mil|HoleSize=0mil|Usage=FLASHONLY|Rotation=90.000|XOffset=0mil|YOffset=0mil|HoleType=Round|Shape=RoundedRectangle|*
%AMROUNDEDRECTD25*
21,1,0.09449,0.03150,0,0,90.0*
21,1,0.06299,0.06299,0,0,90.0*
1,1,0.03150,0.01575,0.03150*
1,1,0.03150,0.01575,-0.03150*
1,1,0.03150,-0.01575,-0.03150*
1,1,0.03150,-0.01575,0.03150*
%
%ADD25ROUNDEDRECTD25*%
%ADD26C,0.24410*%
D11*
X-125984Y-161417D02*
D03*
X-157480Y-122047D02*
D03*
X0Y-68898D02*
D03*
D21*
X165354Y-120079D02*
D03*
X141732D02*
D03*
D22*
X153543Y-138583D02*
D03*
D23*
X-20669Y-129921D02*
D03*
X-73819D02*
D03*
X20669D02*
D03*
X73819D02*
D03*
D24*
X-33071Y-153543D02*
D03*
X-61417D02*
D03*
X33071D02*
D03*
X61417D02*
D03*
D25*
X-29528Y-47244D02*
D03*
X-49213D02*
D03*
X-39370D02*
D03*
X-19685D02*
D03*
X-9843D02*
D03*
X-78740D02*
D03*
X-68898D02*
D03*
X-59055D02*
D03*
X-108268D02*
D03*
X-98425D02*
D03*
X-88583D02*
D03*
X88583D02*
D03*
X98425D02*
D03*
X108268D02*
D03*
X59055D02*
D03*
X68898D02*
D03*
X78740D02*
D03*
X9843D02*
D03*
X19685D02*
D03*
X39370D02*
D03*
X49213D02*
D03*
X29528D02*
D03*
D26*
X114173Y-74803D02*
D03*
Y-19685D02*
D03*
X-114173D02*
D03*
Y-74803D02*
D03*
M02*
