G04*
G04 #@! TF.GenerationSoftware,Altium Limited,Altium Designer,24.2.2 (26)*
G04*
G04 Layer_Color=16711935*
%FSLAX25Y25*%
%MOIN*%
G70*
G04*
G04 #@! TF.SameCoordinates,778AFC17-2929-4255-B4C3-65278F023F0D*
G04*
G04*
G04 #@! TF.FilePolarity,Positive*
G04*
G01*
G75*
%ADD10C,0.01000*%
%ADD38C,0.00600*%
D10*
X-190976Y-141638D02*
X-188976Y-147638D01*
X-186976Y-141638D01*
X-188976Y-96457D02*
X-186976Y-102457D01*
X-190976D02*
X-188976Y-96457D01*
Y-147638D02*
Y-138243D01*
Y-109051D02*
Y-96457D01*
X-189976Y-147638D02*
X-172760D01*
X-189976Y-96457D02*
X-172760D01*
X-212630Y-163291D02*
X-210630Y-169291D01*
X-208630Y-163291D01*
X-210630Y0D02*
X-208630Y-6000D01*
X-212630D02*
X-210630Y0D01*
Y-169291D02*
Y-101341D01*
Y-71150D02*
Y0D01*
X-211630Y-169291D02*
X-131421D01*
X-211630Y0D02*
X-131421D01*
X-175197Y-190945D02*
X-169197Y-188945D01*
X-175197Y-190945D02*
X-169197Y-192945D01*
X169197D02*
X175197Y-190945D01*
X169197Y-188945D02*
X175197Y-190945D01*
X-175197D02*
X-16696D01*
X13496D02*
X175197D01*
X-175197Y-191945D02*
Y-145201D01*
X175197Y-191945D02*
Y-145201D01*
D38*
X-185377Y-136643D02*
Y-134644D01*
Y-135643D01*
X-191375D01*
X-190376Y-136643D01*
Y-131645D02*
X-191375Y-130645D01*
Y-128646D01*
X-190376Y-127646D01*
X-189376D01*
X-188376Y-128646D01*
Y-129645D01*
Y-128646D01*
X-187377Y-127646D01*
X-186377D01*
X-185377Y-128646D01*
Y-130645D01*
X-186377Y-131645D01*
X-185377Y-125647D02*
X-186377D01*
Y-124647D01*
X-185377D01*
Y-125647D01*
X-190376Y-120648D02*
X-191375Y-119649D01*
Y-117649D01*
X-190376Y-116649D01*
X-186377D01*
X-185377Y-117649D01*
Y-119649D01*
X-186377Y-120648D01*
X-190376D01*
Y-114650D02*
X-191375Y-113651D01*
Y-111651D01*
X-190376Y-110651D01*
X-186377D01*
X-185377Y-111651D01*
Y-113651D01*
X-186377Y-114650D01*
X-190376D01*
X-207031Y-96742D02*
X-213029D01*
X-210030Y-99741D01*
Y-95743D01*
X-212029Y-93743D02*
X-213029Y-92744D01*
Y-90744D01*
X-212029Y-89745D01*
X-211030D01*
X-210030Y-90744D01*
Y-91744D01*
Y-90744D01*
X-209030Y-89745D01*
X-208031D01*
X-207031Y-90744D01*
Y-92744D01*
X-208031Y-93743D01*
X-207031Y-87745D02*
X-208031D01*
Y-86746D01*
X-207031D01*
Y-87745D01*
X-212029Y-82747D02*
X-213029Y-81747D01*
Y-79748D01*
X-212029Y-78748D01*
X-208031D01*
X-207031Y-79748D01*
Y-81747D01*
X-208031Y-82747D01*
X-212029D01*
Y-76749D02*
X-213029Y-75749D01*
Y-73750D01*
X-212029Y-72750D01*
X-208031D01*
X-207031Y-73750D01*
Y-75749D01*
X-208031Y-76749D01*
X-212029D01*
X-15096Y-189546D02*
X-14096Y-188546D01*
X-12097D01*
X-11097Y-189546D01*
Y-190545D01*
X-12097Y-191545D01*
X-11097Y-192545D01*
Y-193544D01*
X-12097Y-194544D01*
X-14096D01*
X-15096Y-193544D01*
Y-192545D01*
X-14096Y-191545D01*
X-15096Y-190545D01*
Y-189546D01*
X-14096Y-191545D02*
X-12097D01*
X-9098Y-193544D02*
X-8098Y-194544D01*
X-6099D01*
X-5099Y-193544D01*
Y-189546D01*
X-6099Y-188546D01*
X-8098D01*
X-9098Y-189546D01*
Y-190545D01*
X-8098Y-191545D01*
X-5099D01*
X-3100Y-194544D02*
Y-193544D01*
X-2100D01*
Y-194544D01*
X-3100D01*
X1899Y-189546D02*
X2898Y-188546D01*
X4898D01*
X5897Y-189546D01*
Y-193544D01*
X4898Y-194544D01*
X2898D01*
X1899Y-193544D01*
Y-189546D01*
X7897D02*
X8897Y-188546D01*
X10896D01*
X11896Y-189546D01*
Y-193544D01*
X10896Y-194544D01*
X8897D01*
X7897Y-193544D01*
Y-189546D01*
M02*
