G04*
G04 #@! TF.GenerationSoftware,Altium Limited,Altium Designer,24.2.2 (26)*
G04*
G04 Layer_Color=128*
%FSLAX25Y25*%
%MOIN*%
G70*
G04*
G04 #@! TF.SameCoordinates,C0CDDABA-65D0-4B49-AD35-3B774CF07CDA*
G04*
G04*
G04 #@! TF.FilePolarity,Positive*
G04*
G01*
G75*
%ADD10C,0.01000*%
%ADD11C,0.00500*%
%ADD12C,0.00200*%
D10*
X-175197Y-143701D02*
G03*
X-171260Y-147638I3937J0D01*
G01*
X-171260Y-96457D02*
G03*
X-175197Y-100394I0J-3937D01*
G01*
X-137795Y-96457D02*
G03*
X-133858Y-92520I-0J3937D01*
G01*
X-133858Y-151575D02*
G03*
X-137795Y-147638I-3937J-0D01*
G01*
X-133858Y-165354D02*
G03*
X-129921Y-169291I3937J0D01*
G01*
X129921Y-169291D02*
G03*
X133858Y-165354I-0J3937D01*
G01*
X137795Y-147638D02*
G03*
X133858Y-151575I0J-3937D01*
G01*
X171260Y-147638D02*
G03*
X175197Y-143701I-0J3937D01*
G01*
Y-100394D02*
G03*
X171260Y-96457I-3937J-0D01*
G01*
X133858Y-92520D02*
G03*
X137795Y-96457I3937J0D01*
G01*
X133858Y-3937D02*
G03*
X129921Y-0I-3937J-0D01*
G01*
X98425Y0D02*
G03*
X94488Y-3937I0J-3937D01*
G01*
X-129921Y0D02*
G03*
X-133858Y-3937I0J-3937D01*
G01*
X-94488Y-3937D02*
G03*
X-98425Y-0I-3937J-0D01*
G01*
X90551Y-27559D02*
G03*
X94488Y-23622I-0J3937D01*
G01*
X-94488D02*
G03*
X-90551Y-27559I3937J0D01*
G01*
X-175197Y-143701D02*
Y-100394D01*
X-171260Y-147638D02*
X-137795D01*
X-171260Y-96457D02*
X-137795D01*
X-133858Y-165354D02*
Y-151575D01*
X-129921Y-169291D02*
X129921D01*
X133858Y-165354D02*
Y-151575D01*
X137795Y-147638D02*
X171260D01*
X175197Y-143701D02*
Y-100394D01*
X137795Y-96457D02*
X171274D01*
X-133858Y-3937D02*
X-133858Y-92520D01*
X133858D02*
X133858Y-3937D01*
X98425Y0D02*
X129921D01*
X94488Y-23622D02*
Y-3937D01*
X-129921Y0D02*
X-98425D01*
X-94488Y-23622D02*
Y-3937D01*
X-90551Y-27559D02*
X90551D01*
D11*
X195669Y-150079D02*
Y-90630D01*
D12*
X163386Y-120079D02*
X167323D01*
X165354Y-122047D02*
Y-118110D01*
X151575Y-138583D02*
X155512D01*
X153543Y-140551D02*
Y-136614D01*
X139764Y-120079D02*
X143701D01*
X141732Y-122047D02*
Y-118110D01*
X-22343Y-129921D02*
X-18996D01*
X-20669Y-131595D02*
Y-128248D01*
X-38878Y-153543D02*
X-27264D01*
X-33071Y-159350D02*
Y-147736D01*
X-67224Y-153543D02*
X-55610D01*
X-61417Y-159350D02*
Y-147736D01*
X-75492Y-129921D02*
X-72146D01*
X-73819Y-131595D02*
Y-128248D01*
X18996Y-129921D02*
X22343D01*
X20669Y-131595D02*
Y-128248D01*
X27264Y-153543D02*
X38878D01*
X33071Y-159350D02*
Y-147736D01*
X55610Y-153543D02*
X67224D01*
X61417Y-159350D02*
Y-147736D01*
X72146Y-129921D02*
X75492D01*
X73819Y-131595D02*
Y-128248D01*
X-31102Y-47244D02*
X-27953D01*
X-29528Y-48819D02*
Y-45669D01*
X-50787Y-47244D02*
X-47638D01*
X-49213Y-48819D02*
Y-45669D01*
X-40945Y-47244D02*
X-37795D01*
X-39370Y-48819D02*
Y-45669D01*
X-21260Y-47244D02*
X-18110D01*
X-19685Y-48819D02*
Y-45669D01*
X-11417Y-47244D02*
X-8268D01*
X-9843Y-48819D02*
Y-45669D01*
X-80315Y-47244D02*
X-77165D01*
X-78740Y-48819D02*
Y-45669D01*
X-70472Y-47244D02*
X-67323D01*
X-68898Y-48819D02*
Y-45669D01*
X-60630Y-47244D02*
X-57480D01*
X-59055Y-48819D02*
Y-45669D01*
X-109843Y-47244D02*
X-106693D01*
X-108268Y-48819D02*
Y-45669D01*
X-100000Y-47244D02*
X-96850D01*
X-98425Y-48819D02*
Y-45669D01*
X-90158Y-47244D02*
X-87008D01*
X-88583Y-48819D02*
Y-45669D01*
X87008Y-47244D02*
X90158D01*
X88583Y-48819D02*
Y-45669D01*
X96850Y-47244D02*
X100000D01*
X98425Y-48819D02*
Y-45669D01*
X106693Y-47244D02*
X109843D01*
X108268Y-48819D02*
Y-45669D01*
X57480Y-47244D02*
X60630D01*
X59055Y-48819D02*
Y-45669D01*
X67323Y-47244D02*
X70472D01*
X68898Y-48819D02*
Y-45669D01*
X77165Y-47244D02*
X80315D01*
X78740Y-48819D02*
Y-45669D01*
X8268Y-47244D02*
X11417D01*
X9843Y-48819D02*
Y-45669D01*
X18110Y-47244D02*
X21260D01*
X19685Y-48819D02*
Y-45669D01*
X37795Y-47244D02*
X40945D01*
X39370Y-48819D02*
Y-45669D01*
X47638Y-47244D02*
X50787D01*
X49213Y-48819D02*
Y-45669D01*
X27953Y-47244D02*
X31102D01*
X29528Y-48819D02*
Y-45669D01*
X105866Y-74803D02*
X122480D01*
X114173Y-83110D02*
Y-66496D01*
X105866Y-19685D02*
X122480D01*
X114173Y-27992D02*
Y-11378D01*
X-122480Y-19685D02*
X-105866D01*
X-114173Y-27992D02*
Y-11378D01*
X-122480Y-74803D02*
X-105866D01*
X-114173Y-83110D02*
Y-66496D01*
X152743Y-114173D02*
X154343D01*
X153543Y-114973D02*
Y-113373D01*
X152743Y-125984D02*
X154343D01*
X153543Y-126784D02*
Y-125184D01*
X152743Y-118110D02*
X154343D01*
X153543Y-118910D02*
Y-117310D01*
X152743Y-122047D02*
X154343D01*
X153543Y-122847D02*
Y-121247D01*
X148806Y-122047D02*
X150406D01*
X149606Y-122847D02*
Y-121247D01*
X148806Y-118110D02*
X150406D01*
X149606Y-118910D02*
Y-117310D01*
X148806Y-125984D02*
X150406D01*
X149606Y-126784D02*
Y-125184D01*
X148806Y-114173D02*
X150406D01*
X149606Y-114973D02*
Y-113373D01*
X109436Y-143701D02*
X111036D01*
X110236Y-144501D02*
Y-142901D01*
X109436Y-147638D02*
X111036D01*
X110236Y-148438D02*
Y-146838D01*
X109436Y-92520D02*
X111036D01*
X110236Y-93320D02*
Y-91720D01*
X113373Y-92520D02*
X114973D01*
X114173Y-93320D02*
Y-91720D01*
X117310Y-92520D02*
X118910D01*
X118110Y-93320D02*
Y-91720D01*
X121247Y-92520D02*
X122847D01*
X122047Y-93320D02*
Y-91720D01*
X125184Y-92520D02*
X126784D01*
X125984Y-93320D02*
Y-91720D01*
X125184Y-96457D02*
X126784D01*
X125984Y-97257D02*
Y-95657D01*
X121247Y-96457D02*
X122847D01*
X122047Y-97257D02*
Y-95657D01*
X121247Y-100394D02*
X122847D01*
X122047Y-101194D02*
Y-99594D01*
X117310Y-96457D02*
X118910D01*
X118110Y-97257D02*
Y-95657D01*
X117310Y-100394D02*
X118910D01*
X118110Y-101194D02*
Y-99594D01*
X109436Y-96457D02*
X111036D01*
X110236Y-97257D02*
Y-95657D01*
X109436Y-100394D02*
X111036D01*
X110236Y-101194D02*
Y-99594D01*
X-4737Y-112205D02*
X-3137D01*
X-3937Y-113005D02*
Y-111405D01*
X-8674Y-116142D02*
X-7074D01*
X-7874Y-116942D02*
Y-115342D01*
X-8674Y-112205D02*
X-7074D01*
X-7874Y-113005D02*
Y-111405D01*
X-4737Y-116142D02*
X-3137D01*
X-3937Y-116942D02*
Y-115342D01*
X7074Y-116142D02*
X8674D01*
X7874Y-116942D02*
Y-115342D01*
X3137Y-112205D02*
X4737D01*
X3937Y-113005D02*
Y-111405D01*
X3137Y-116142D02*
X4737D01*
X3937Y-116942D02*
Y-115342D01*
X-800Y-116142D02*
X800D01*
X0Y-116942D02*
Y-115342D01*
X-800Y-112205D02*
X800D01*
X0Y-113005D02*
Y-111405D01*
X7074Y-112205D02*
X8674D01*
X7874Y-113005D02*
Y-111405D01*
X-126784Y-129921D02*
X-125184D01*
X-125984Y-130721D02*
Y-129121D01*
X-122847Y-145669D02*
X-121247D01*
X-122047Y-146469D02*
Y-144869D01*
X-122847Y-141732D02*
X-121247D01*
X-122047Y-142532D02*
Y-140932D01*
X-122847Y-137795D02*
X-121247D01*
X-122047Y-138595D02*
Y-136995D01*
X-122847Y-133858D02*
X-121247D01*
X-122047Y-134658D02*
Y-133058D01*
X-122847Y-129921D02*
X-121247D01*
X-122047Y-130721D02*
Y-129121D01*
X-126784Y-133858D02*
X-125184D01*
X-125984Y-134658D02*
Y-133058D01*
X-126784Y-141732D02*
X-125184D01*
X-125984Y-142532D02*
Y-140932D01*
X-126784Y-145669D02*
X-125184D01*
X-125984Y-146469D02*
Y-144869D01*
X-126784Y-137795D02*
X-125184D01*
X-125984Y-138595D02*
Y-136995D01*
X-126784Y-98425D02*
X-125184D01*
X-125984Y-99225D02*
Y-97625D01*
X-126784Y-106299D02*
X-125184D01*
X-125984Y-107099D02*
Y-105499D01*
X-122847Y-106299D02*
X-121247D01*
X-122047Y-107099D02*
Y-105499D01*
X-122847Y-102362D02*
X-121247D01*
X-122047Y-103162D02*
Y-101562D01*
X-126784Y-102362D02*
X-125184D01*
X-125984Y-103162D02*
Y-101562D01*
X-122847Y-98425D02*
X-121247D01*
X-122047Y-99225D02*
Y-97625D01*
X-122847Y-110236D02*
X-121247D01*
X-122047Y-111036D02*
Y-109436D01*
X-126784Y-114173D02*
X-125184D01*
X-125984Y-114973D02*
Y-113373D01*
X-122847Y-114173D02*
X-121247D01*
X-122047Y-114973D02*
Y-113373D01*
X-126784Y-110236D02*
X-125184D01*
X-125984Y-111036D02*
Y-109436D01*
X121247Y-139764D02*
X122847D01*
X122047Y-140564D02*
Y-138964D01*
X121247Y-143701D02*
X122847D01*
X122047Y-144501D02*
Y-142901D01*
X121247Y-147638D02*
X122847D01*
X122047Y-148438D02*
Y-146838D01*
X121247Y-151575D02*
X122847D01*
X122047Y-152375D02*
Y-150775D01*
X125184Y-151575D02*
X126784D01*
X125984Y-152375D02*
Y-150775D01*
X125184Y-147638D02*
X126784D01*
X125984Y-148438D02*
Y-146838D01*
X125184Y-143701D02*
X126784D01*
X125984Y-144501D02*
Y-142901D01*
X125184Y-139764D02*
X126784D01*
X125984Y-140564D02*
Y-138964D01*
X127153Y-127953D02*
X128753D01*
X127953Y-128753D02*
Y-127153D01*
X127153Y-116142D02*
X128753D01*
X127953Y-116942D02*
Y-115342D01*
X127153Y-120079D02*
X128753D01*
X127953Y-120879D02*
Y-119279D01*
X127153Y-124016D02*
X128753D01*
X127953Y-124816D02*
Y-123216D01*
X131090Y-120079D02*
X132690D01*
X131890Y-120879D02*
Y-119279D01*
X131090Y-124016D02*
X132690D01*
X131890Y-124816D02*
Y-123216D01*
X131090Y-116142D02*
X132690D01*
X131890Y-116942D02*
Y-115342D01*
X131090Y-127953D02*
X132690D01*
X131890Y-128753D02*
Y-127153D01*
M02*
