M48
;Layer_Color=9474304
;FILE_FORMAT=2:5
INCH,TZ
;TYPE=PLATED
T01F00S00C0.01600
T05F00S00C0.11614
T06F00S00C0.16614
%
T01
X-125984Y-145669
X-122047
Y-141732
Y-137795
Y-133858
Y-129921
X-125984
Y-133858
Y-137795
Y-141732
Y-114173
X-122047
Y-110236
Y-106299
X-125984
Y-110236
Y-102362
Y-98425
X-122047
Y-102362
X-7874Y-112205
X-3937
X0
X3937
Y-116142
X7874
Y-112205
X0Y-116142
X-3937
X-7874
X110236Y-100394
Y-96457
X110236Y-92520
X114173
X118110
X122047
X125984
Y-96457
X122047
Y-100394
X118110
Y-96457
X127953Y-116142
Y-120079
Y-124016
Y-127953
X131890
X131890Y-124016
Y-120079
Y-116142
X149606Y-114173
X153543
Y-118110
Y-122047
X149606
Y-118110
X149606Y-125984
X153543
X125984Y-139764
Y-143701
X122047
Y-139764
Y-147638
Y-151575
X125984
Y-147638
X110236Y-147638
Y-143701
T05
X-61417Y-153543
X-33071
X33071
X61417
T06
X114173Y-74803
Y-19685
X-114173
Y-74803
M30
