M48
;Layer_Color=9474304
;FILE_FORMAT=2:5
INCH,TZ
;TYPE=PLATED
T02F00S00C0.03150
T03F00S00C0.03346
T04F00S00C0.03937
%
G90
G05
T02
X98425Y-46063G85Y-48425
X108268Y-46063G85Y-48425
X88583Y-46063G85Y-48425
X78740Y-46063G85Y-48425
X68898Y-46063G85Y-48425
X59055Y-46063G85Y-48425
X49213Y-46063G85Y-48425
X39370Y-46063G85Y-48425
X29528Y-46063G85Y-48425
X19685Y-46063G85Y-48425
X9843Y-46063G85Y-48425
X-9843Y-48425G85Y-46063
X-19685Y-48425G85Y-46063
X-29528Y-48425G85Y-46063
X-39370Y-48425G85Y-46063
X-49213Y-48425G85Y-46063
X-59055Y-48425G85Y-46063
X-68898Y-48425G85Y-46063
X-78740Y-48425G85Y-46063
X-88583Y-48425G85Y-46063
X-98425Y-48425G85Y-46063
X-108268Y-48425G85Y-46063
T03
X-73819Y-132087G85Y-127756
X-20669Y-132087G85Y-127756
X20669Y-132087G85Y-127756
X73819Y-132087G85Y-127756
T04
X158465Y-138583G85X148622
X141732Y-115157G85Y-125000
X165354Y-125000G85Y-115157
M30
