G04*
G04 #@! TF.GenerationSoftware,Altium Limited,Altium Designer,24.2.2 (26)*
G04*
G04 Layer_Color=16711935*
%FSLAX25Y25*%
%MOIN*%
G70*
G04*
G04 #@! TF.SameCoordinates,778AFC17-2929-4255-B4C3-65278F023F0D*
G04*
G04*
G04 #@! TF.FilePolarity,Positive*
G04*
G01*
G75*
%ADD10C,0.01000*%
%ADD36C,0.00500*%
D10*
X-175197Y-143701D02*
G03*
X-171260Y-147638I3937J0D01*
G01*
X-171260Y-96457D02*
G03*
X-175197Y-100394I0J-3937D01*
G01*
X-137795Y-96457D02*
G03*
X-133858Y-92520I-0J3937D01*
G01*
X-133858Y-151575D02*
G03*
X-137795Y-147638I-3937J-0D01*
G01*
X-133858Y-165354D02*
G03*
X-129921Y-169291I3937J0D01*
G01*
X129921Y-169291D02*
G03*
X133858Y-165354I-0J3937D01*
G01*
X137795Y-147638D02*
G03*
X133858Y-151575I0J-3937D01*
G01*
X171260Y-147638D02*
G03*
X175197Y-143701I-0J3937D01*
G01*
Y-100394D02*
G03*
X171260Y-96457I-3937J-0D01*
G01*
X133858Y-92520D02*
G03*
X137795Y-96457I3937J0D01*
G01*
X133858Y-3937D02*
G03*
X129921Y-0I-3937J-0D01*
G01*
X98425Y0D02*
G03*
X94488Y-3937I0J-3937D01*
G01*
X-129921Y0D02*
G03*
X-133858Y-3937I0J-3937D01*
G01*
X-94488Y-3937D02*
G03*
X-98425Y-0I-3937J-0D01*
G01*
X90551Y-27559D02*
G03*
X94488Y-23622I-0J3937D01*
G01*
X-94488D02*
G03*
X-90551Y-27559I3937J0D01*
G01*
X-175197Y-143701D02*
Y-100394D01*
X-171260Y-147638D02*
X-137795D01*
X-171260Y-96457D02*
X-137795D01*
X-133858Y-165354D02*
Y-151575D01*
X-129921Y-169291D02*
X129921D01*
X133858Y-165354D02*
Y-151575D01*
X137795Y-147638D02*
X171260D01*
X175197Y-143701D02*
Y-100394D01*
X137795Y-96457D02*
X171274D01*
X-133858Y-3937D02*
X-133858Y-92520D01*
X133858D02*
X133858Y-3937D01*
X98425Y0D02*
X129921D01*
X94488Y-23622D02*
Y-3937D01*
X-129921Y0D02*
X-98425D01*
X-94488Y-23622D02*
Y-3937D01*
X-90551Y-27559D02*
X90551D01*
D36*
X195669Y-150079D02*
Y-90630D01*
M02*
