G04*
G04 #@! TF.GenerationSoftware,Altium Limited,Altium Designer,24.2.2 (26)*
G04*
G04 Layer_Color=8388736*
%FSLAX25Y25*%
%MOIN*%
G70*
G04*
G04 #@! TF.SameCoordinates,778AFC17-2929-4255-B4C3-65278F023F0D*
G04*
G04*
G04 #@! TF.FilePolarity,Negative*
G04*
G01*
G75*
%ADD10C,0.01000*%
%ADD12C,0.01772*%
%ADD13R,0.00787X0.00787*%
%ADD14C,0.07874*%
%ADD15O,0.10642X0.20485*%
%ADD16O,0.20485X0.10642*%
G04:AMPARAMS|DCode=17|XSize=70.99mil|YSize=157.61mil|CornerRadius=35.5mil|HoleSize=0mil|Usage=FLASHONLY|Rotation=180.000|XOffset=0mil|YOffset=0mil|HoleType=Round|Shape=RoundedRectangle|*
%AMROUNDEDRECTD17*
21,1,0.07099,0.08661,0,0,180.0*
21,1,0.00000,0.15761,0,0,180.0*
1,1,0.07099,0.00000,0.04331*
1,1,0.07099,0.00000,0.04331*
1,1,0.07099,0.00000,-0.04331*
1,1,0.07099,0.00000,-0.04331*
%
%ADD17ROUNDEDRECTD17*%
%ADD18C,0.22453*%
G04:AMPARAMS|DCode=19|XSize=102.49mil|YSize=70.99mil|CornerRadius=19.75mil|HoleSize=0mil|Usage=FLASHONLY|Rotation=90.000|XOffset=0mil|YOffset=0mil|HoleType=Round|Shape=RoundedRectangle|*
%AMROUNDEDRECTD19*
21,1,0.10249,0.03150,0,0,90.0*
21,1,0.06299,0.07099,0,0,90.0*
1,1,0.03950,0.01575,0.03150*
1,1,0.03950,0.01575,-0.03150*
1,1,0.03950,-0.01575,-0.03150*
1,1,0.03950,-0.01575,0.03150*
%
%ADD19ROUNDEDRECTD19*%
%ADD20C,0.25210*%
D10*
X-38987Y-96426D02*
Y-100425D01*
X-36988D01*
X-36322Y-99758D01*
Y-97092D01*
X-36988Y-96426D01*
X-38987D01*
X-32323D02*
X-34989D01*
Y-100425D01*
X-32323D01*
X-34989Y-98425D02*
X-33656D01*
X-28324Y-97092D02*
X-28991Y-96426D01*
X-30324D01*
X-30990Y-97092D01*
Y-97759D01*
X-30324Y-98425D01*
X-28991D01*
X-28324Y-99092D01*
Y-99758D01*
X-28991Y-100425D01*
X-30324D01*
X-30990Y-99758D01*
X-26991Y-96426D02*
X-25658D01*
X-26325D01*
Y-100425D01*
X-26991D01*
X-25658D01*
X-20993Y-97092D02*
X-21660Y-96426D01*
X-22993D01*
X-23659Y-97092D01*
Y-99758D01*
X-22993Y-100425D01*
X-21660D01*
X-20993Y-99758D01*
Y-98425D01*
X-22326D01*
X-19660Y-100425D02*
Y-96426D01*
X-16995Y-100425D01*
Y-96426D01*
X-12996D02*
X-15662D01*
Y-100425D01*
X-12996D01*
X-15662Y-98425D02*
X-14329D01*
X-11663Y-96426D02*
Y-100425D01*
X-9663D01*
X-8997Y-99758D01*
Y-97092D01*
X-9663Y-96426D01*
X-11663D01*
X-3666D02*
Y-100425D01*
X-1666D01*
X-1000Y-99758D01*
Y-99092D01*
X-1666Y-98425D01*
X-3666D01*
X-1666D01*
X-1000Y-97759D01*
Y-97092D01*
X-1666Y-96426D01*
X-3666D01*
X333D02*
Y-97092D01*
X1666Y-98425D01*
X2999Y-97092D01*
Y-96426D01*
X1666Y-98425D02*
Y-100425D01*
X8331Y-96426D02*
X10996D01*
X9663D01*
Y-100425D01*
X14329Y-96426D02*
X12996D01*
X12329Y-97092D01*
Y-99758D01*
X12996Y-100425D01*
X14329D01*
X14995Y-99758D01*
Y-97092D01*
X14329Y-96426D01*
X16328Y-100425D02*
Y-96426D01*
X18994Y-100425D01*
Y-96426D01*
X20327D02*
Y-97092D01*
X21660Y-98425D01*
X22993Y-97092D01*
Y-96426D01*
X21660Y-98425D02*
Y-100425D01*
X24326Y-96426D02*
Y-100425D01*
X26991D01*
X28324D02*
Y-97759D01*
X29657Y-96426D01*
X30990Y-97759D01*
Y-100425D01*
Y-98425D01*
X28324D01*
X32323Y-96426D02*
Y-100425D01*
X34322D01*
X34989Y-99758D01*
Y-99092D01*
X34322Y-98425D01*
X32323D01*
X34322D01*
X34989Y-97759D01*
Y-97092D01*
X34322Y-96426D01*
X32323D01*
X38987Y-97092D02*
X38321Y-96426D01*
X36988D01*
X36322Y-97092D01*
Y-97759D01*
X36988Y-98425D01*
X38321D01*
X38987Y-99092D01*
Y-99758D01*
X38321Y-100425D01*
X36988D01*
X36322Y-99758D01*
D12*
X56431Y-62992D02*
X61679D01*
X59055Y-60368D02*
Y-65616D01*
X-61679Y-62992D02*
X-56431D01*
D13*
X-63386Y-77559D02*
D03*
Y-79134D02*
D03*
Y-80709D02*
D03*
X-61811Y-79134D02*
D03*
Y-80709D02*
D03*
X-60236Y-79134D02*
D03*
Y-80709D02*
D03*
X-58661Y-80708D02*
D03*
X-57086D02*
D03*
X-55512D02*
D03*
X-53937Y-80709D02*
D03*
X-52362D02*
D03*
X-61811Y-77559D02*
D03*
X-55512Y-77559D02*
D03*
X-60236Y-77559D02*
D03*
X-58661Y-77559D02*
D03*
X-57086D02*
D03*
X-53937Y-77559D02*
D03*
X-52362D02*
D03*
X-50787Y-77559D02*
D03*
X-49212D02*
D03*
X-47638D02*
D03*
X-46063Y-77559D02*
D03*
X-44488D02*
D03*
X-42913Y-77559D02*
D03*
X-58661Y-79134D02*
D03*
X-52362Y-79134D02*
D03*
X-57086Y-79134D02*
D03*
X-55512D02*
D03*
X-53937Y-79134D02*
D03*
X-50787Y-79134D02*
D03*
X-49212D02*
D03*
X-47638D02*
D03*
X-46063Y-79134D02*
D03*
X-44488D02*
D03*
X-42913Y-79134D02*
D03*
X-41338D02*
D03*
X-39764D02*
D03*
X-44488Y-80709D02*
D03*
X-50787Y-80708D02*
D03*
X-49212D02*
D03*
X-47638Y-80708D02*
D03*
X-46063Y-80709D02*
D03*
X-42913Y-80708D02*
D03*
X-41339D02*
D03*
X-39764D02*
D03*
X-38189D02*
D03*
X-36614D02*
D03*
X-35039Y-80709D02*
D03*
X-33465D02*
D03*
X-31890D02*
D03*
X-36614Y-77559D02*
D03*
X-41338D02*
D03*
X-39764D02*
D03*
X-38189D02*
D03*
X-35039Y-77559D02*
D03*
X-33465D02*
D03*
X-31890D02*
D03*
X-33465Y-79134D02*
D03*
X-38189Y-79134D02*
D03*
X-36614D02*
D03*
X-35039Y-79134D02*
D03*
X-31890D02*
D03*
X31102Y-77559D02*
D03*
Y-79134D02*
D03*
Y-80709D02*
D03*
X32677Y-79134D02*
D03*
Y-80709D02*
D03*
X34252Y-79134D02*
D03*
Y-80709D02*
D03*
X35827Y-80709D02*
D03*
X37402D02*
D03*
X38976D02*
D03*
X40551Y-80709D02*
D03*
X42126D02*
D03*
X32677Y-77559D02*
D03*
X38976Y-77559D02*
D03*
X34252Y-77559D02*
D03*
X35827Y-77559D02*
D03*
X37402D02*
D03*
X40551Y-77559D02*
D03*
X42126D02*
D03*
X43701Y-77559D02*
D03*
X45276D02*
D03*
X46850D02*
D03*
X48425Y-77559D02*
D03*
X50000D02*
D03*
X51575Y-77559D02*
D03*
X35827Y-79134D02*
D03*
X42126Y-79134D02*
D03*
X37402Y-79134D02*
D03*
X38976D02*
D03*
X40551Y-79134D02*
D03*
X43701Y-79134D02*
D03*
X45276D02*
D03*
X46850D02*
D03*
X48425Y-79134D02*
D03*
X50000D02*
D03*
X51575Y-79134D02*
D03*
X53150D02*
D03*
X54725D02*
D03*
X50000Y-80709D02*
D03*
X43701Y-80709D02*
D03*
X45276D02*
D03*
X46850D02*
D03*
X48425Y-80709D02*
D03*
X51575Y-80709D02*
D03*
X53150D02*
D03*
X54725D02*
D03*
X56299D02*
D03*
X57874D02*
D03*
X59449Y-80709D02*
D03*
X61023D02*
D03*
X62598D02*
D03*
X57874Y-77559D02*
D03*
X53150D02*
D03*
X54725D02*
D03*
X56299D02*
D03*
X59449Y-77559D02*
D03*
X61023D02*
D03*
X62598D02*
D03*
X61023Y-79134D02*
D03*
X56299Y-79134D02*
D03*
X57874D02*
D03*
X59449Y-79134D02*
D03*
X62598D02*
D03*
D14*
X-125984Y-161417D02*
D03*
X-157480Y-122047D02*
D03*
X0Y-68898D02*
D03*
D15*
X165354Y-120079D02*
D03*
X141732D02*
D03*
D16*
X153543Y-138583D02*
D03*
D17*
X-20669Y-129921D02*
D03*
X-73819D02*
D03*
X20669D02*
D03*
X73819D02*
D03*
D18*
X-33071Y-153543D02*
D03*
X-61417D02*
D03*
X33071D02*
D03*
X61417D02*
D03*
D19*
X-29528Y-47244D02*
D03*
X-49213D02*
D03*
X-39370D02*
D03*
X-19685D02*
D03*
X-9843D02*
D03*
X-78740D02*
D03*
X-68898D02*
D03*
X-59055D02*
D03*
X-108268D02*
D03*
X-98425D02*
D03*
X-88583D02*
D03*
X88583D02*
D03*
X98425D02*
D03*
X108268D02*
D03*
X59055D02*
D03*
X68898D02*
D03*
X78740D02*
D03*
X9843D02*
D03*
X19685D02*
D03*
X39370D02*
D03*
X49213D02*
D03*
X29528D02*
D03*
D20*
X114173Y-74803D02*
D03*
Y-19685D02*
D03*
X-114173D02*
D03*
Y-74803D02*
D03*
M02*
