G04*
G04 #@! TF.GenerationSoftware,Altium Limited,Altium Designer,24.2.2 (26)*
G04*
G04 Layer_Physical_Order=2*
G04 Layer_Color=16711680*
%FSLAX25Y25*%
%MOIN*%
G70*
G04*
G04 #@! TF.SameCoordinates,778AFC17-2929-4255-B4C3-65278F023F0D*
G04*
G04*
G04 #@! TF.FilePolarity,Positive*
G04*
G01*
G75*
%ADD11C,0.03937*%
%ADD13R,0.00787X0.00787*%
%ADD21O,0.09843X0.19685*%
%ADD22O,0.19685X0.09843*%
G04:AMPARAMS|DCode=23|XSize=62.99mil|YSize=149.61mil|CornerRadius=31.5mil|HoleSize=0mil|Usage=FLASHONLY|Rotation=180.000|XOffset=0mil|YOffset=0mil|HoleType=Round|Shape=RoundedRectangle|*
%AMROUNDEDRECTD23*
21,1,0.06299,0.08661,0,0,180.0*
21,1,0.00000,0.14961,0,0,180.0*
1,1,0.06299,0.00000,0.04331*
1,1,0.06299,0.00000,0.04331*
1,1,0.06299,0.00000,-0.04331*
1,1,0.06299,0.00000,-0.04331*
%
%ADD23ROUNDEDRECTD23*%
%ADD24C,0.21654*%
G04:AMPARAMS|DCode=25|XSize=94.49mil|YSize=62.99mil|CornerRadius=15.75mil|HoleSize=0mil|Usage=FLASHONLY|Rotation=90.000|XOffset=0mil|YOffset=0mil|HoleType=Round|Shape=RoundedRectangle|*
%AMROUNDEDRECTD25*
21,1,0.09449,0.03150,0,0,90.0*
21,1,0.06299,0.06299,0,0,90.0*
1,1,0.03150,0.01575,0.03150*
1,1,0.03150,0.01575,-0.03150*
1,1,0.03150,-0.01575,-0.03150*
1,1,0.03150,-0.01575,0.03150*
%
%ADD25ROUNDEDRECTD25*%
%ADD26C,0.24410*%
%ADD27C,0.03200*%
G04:AMPARAMS|DCode=28|XSize=118.11mil|YSize=62.99mil|CornerRadius=3.15mil|HoleSize=0mil|Usage=FLASHONLY|Rotation=0.000|XOffset=0mil|YOffset=0mil|HoleType=Round|Shape=RoundedRectangle|*
%AMROUNDEDRECTD28*
21,1,0.11811,0.05669,0,0,0.0*
21,1,0.11181,0.06299,0,0,0.0*
1,1,0.00630,0.05591,-0.02835*
1,1,0.00630,-0.05591,-0.02835*
1,1,0.00630,-0.05591,0.02835*
1,1,0.00630,0.05591,0.02835*
%
%ADD28ROUNDEDRECTD28*%
G04:AMPARAMS|DCode=29|XSize=150mil|YSize=110mil|CornerRadius=5.5mil|HoleSize=0mil|Usage=FLASHONLY|Rotation=180.000|XOffset=0mil|YOffset=0mil|HoleType=Round|Shape=RoundedRectangle|*
%AMROUNDEDRECTD29*
21,1,0.15000,0.09900,0,0,180.0*
21,1,0.13900,0.11000,0,0,180.0*
1,1,0.01100,-0.06950,0.04950*
1,1,0.01100,0.06950,0.04950*
1,1,0.01100,0.06950,-0.04950*
1,1,0.01100,-0.06950,-0.04950*
%
%ADD29ROUNDEDRECTD29*%
G36*
X129921Y-90551D02*
Y-100394D01*
X127953Y-102362D01*
Y-106299D01*
X125984Y-108268D01*
X124016D01*
X120079Y-112205D01*
Y-112205D01*
X108268D01*
X106299Y-110236D01*
Y-90551D01*
X108268Y-88583D01*
X127953D01*
X129921Y-90551D01*
D02*
G37*
G36*
X-106299Y-118110D02*
X-129921D01*
Y-94488D01*
X-106299D01*
Y-118110D01*
D02*
G37*
G36*
X11811Y-133858D02*
X-11811D01*
Y-108268D01*
X11811D01*
Y-133858D01*
D02*
G37*
G36*
X118110Y-39370D02*
Y-57087D01*
X116142Y-59055D01*
X102362D01*
X100394Y-61024D01*
X100394Y-86614D01*
X102362Y-88583D01*
X102362Y-112205D01*
X106299Y-116142D01*
X122047D01*
X125984Y-112205D01*
X127953D01*
X129921Y-110236D01*
Y-108268D01*
X131890Y-106299D01*
Y-104331D01*
X133858Y-102362D01*
X155512D01*
X157480Y-104331D01*
Y-129921D01*
X155512Y-131890D01*
X143701D01*
X141732Y-133858D01*
Y-143701D01*
X139764Y-145669D01*
X135827D01*
X133858Y-143701D01*
Y-133858D01*
X129921Y-129921D01*
X106299D01*
X102362Y-133858D01*
Y-153543D01*
X100394Y-155512D01*
X84646D01*
X82677Y-153543D01*
Y-118110D01*
X80709Y-116142D01*
X68898D01*
X66929Y-118110D01*
Y-137795D01*
X64961Y-139764D01*
X53150D01*
X47244Y-145669D01*
Y-165354D01*
X45276Y-167323D01*
X-11811D01*
X-13780Y-165354D01*
Y-143701D01*
X-11811Y-141732D01*
X23622D01*
X25591Y-139764D01*
Y-106299D01*
X23622Y-104331D01*
X-25591D01*
X-27559Y-106299D01*
Y-133858D01*
X-29528Y-135827D01*
X-45276D01*
X-47244Y-137795D01*
Y-165354D01*
X-49213Y-167323D01*
X-100394Y-167323D01*
X-102362Y-165354D01*
Y-96457D01*
X-100394Y-94488D01*
X-82677D01*
X-80709Y-96457D01*
Y-137795D01*
X-78740Y-139764D01*
X-68898D01*
X-66929Y-137795D01*
X-66929Y-86614D01*
X-64961Y-84646D01*
X23622D01*
X25591Y-82677D01*
Y-39370D01*
X27559Y-37402D01*
X116142D01*
X118110Y-39370D01*
D02*
G37*
G36*
X-106299Y-149606D02*
X-129921D01*
Y-125984D01*
X-106299D01*
Y-149606D01*
D02*
G37*
G36*
X129921Y-135827D02*
Y-153543D01*
X127953Y-155512D01*
X108268D01*
X106299Y-153543D01*
Y-135827D01*
X108268Y-133858D01*
X127953D01*
X129921Y-135827D01*
D02*
G37*
D11*
X-125984Y-161417D02*
D03*
X-157480Y-122047D02*
D03*
X0Y-68898D02*
D03*
D13*
X-33858Y-34646D02*
D03*
Y-33071D02*
D03*
Y-31496D02*
D03*
X-32283Y-34646D02*
D03*
Y-33071D02*
D03*
Y-31496D02*
D03*
X-30708Y-34646D02*
D03*
Y-33071D02*
D03*
Y-31496D02*
D03*
X-29134Y-34646D02*
D03*
Y-33071D02*
D03*
Y-31496D02*
D03*
X-27559Y-34646D02*
D03*
Y-33071D02*
D03*
Y-31496D02*
D03*
X-25984Y-34646D02*
D03*
Y-33071D02*
D03*
Y-31496D02*
D03*
X-24409Y-34646D02*
D03*
Y-33071D02*
D03*
Y-31496D02*
D03*
X-22834Y-34646D02*
D03*
Y-33071D02*
D03*
Y-31496D02*
D03*
X-21260Y-34646D02*
D03*
Y-33071D02*
D03*
Y-31496D02*
D03*
X-19685Y-34646D02*
D03*
Y-33071D02*
D03*
Y-31496D02*
D03*
X-18110Y-34646D02*
D03*
Y-33071D02*
D03*
Y-31496D02*
D03*
X-16536Y-34646D02*
D03*
Y-33071D02*
D03*
Y-31496D02*
D03*
X-14961Y-34646D02*
D03*
Y-33071D02*
D03*
Y-31496D02*
D03*
X-13386Y-34646D02*
D03*
Y-33071D02*
D03*
Y-31496D02*
D03*
X-11811Y-34646D02*
D03*
Y-33071D02*
D03*
Y-31496D02*
D03*
X-10236Y-34646D02*
D03*
Y-33071D02*
D03*
Y-31496D02*
D03*
X-8661Y-34646D02*
D03*
Y-33071D02*
D03*
Y-31496D02*
D03*
X-7087Y-34646D02*
D03*
Y-33071D02*
D03*
Y-31496D02*
D03*
X-5512Y-34646D02*
D03*
Y-33071D02*
D03*
Y-31496D02*
D03*
X-3937Y-34646D02*
D03*
Y-33071D02*
D03*
Y-31496D02*
D03*
X-2363Y-34646D02*
D03*
Y-33071D02*
D03*
Y-31496D02*
D03*
X40945Y-34646D02*
D03*
Y-33071D02*
D03*
Y-31496D02*
D03*
X42520Y-34646D02*
D03*
Y-33071D02*
D03*
Y-31496D02*
D03*
X44095Y-34646D02*
D03*
Y-33071D02*
D03*
Y-31496D02*
D03*
X45669Y-34646D02*
D03*
Y-33071D02*
D03*
Y-31496D02*
D03*
X47244Y-34646D02*
D03*
Y-33071D02*
D03*
Y-31496D02*
D03*
X48819Y-34646D02*
D03*
Y-33071D02*
D03*
Y-31496D02*
D03*
X50394Y-34646D02*
D03*
Y-33071D02*
D03*
Y-31496D02*
D03*
X51969Y-34646D02*
D03*
Y-33071D02*
D03*
Y-31496D02*
D03*
X53543Y-34646D02*
D03*
Y-33071D02*
D03*
Y-31496D02*
D03*
X55118Y-34646D02*
D03*
Y-33071D02*
D03*
Y-31496D02*
D03*
X56693Y-34646D02*
D03*
Y-33071D02*
D03*
Y-31496D02*
D03*
X58267Y-34646D02*
D03*
Y-33071D02*
D03*
Y-31496D02*
D03*
X59842Y-34646D02*
D03*
Y-33071D02*
D03*
Y-31496D02*
D03*
X61417Y-34646D02*
D03*
Y-33071D02*
D03*
Y-31496D02*
D03*
X62992Y-34646D02*
D03*
Y-33071D02*
D03*
Y-31496D02*
D03*
X64567Y-34646D02*
D03*
Y-33071D02*
D03*
Y-31496D02*
D03*
X66142Y-34646D02*
D03*
Y-33071D02*
D03*
Y-31496D02*
D03*
X67716Y-34646D02*
D03*
Y-33071D02*
D03*
Y-31496D02*
D03*
X69291Y-34646D02*
D03*
Y-33071D02*
D03*
Y-31496D02*
D03*
X70866Y-34646D02*
D03*
Y-33071D02*
D03*
Y-31496D02*
D03*
X72440Y-34646D02*
D03*
Y-33071D02*
D03*
Y-31496D02*
D03*
X-71259Y-34646D02*
D03*
Y-33071D02*
D03*
Y-31496D02*
D03*
X-69685Y-34646D02*
D03*
Y-33071D02*
D03*
Y-31496D02*
D03*
X-68110Y-34646D02*
D03*
Y-33071D02*
D03*
Y-31496D02*
D03*
X-66535Y-34646D02*
D03*
Y-33071D02*
D03*
Y-31496D02*
D03*
X-64961Y-34646D02*
D03*
Y-33071D02*
D03*
Y-31496D02*
D03*
X-63386Y-34646D02*
D03*
Y-33071D02*
D03*
Y-31496D02*
D03*
X-61811Y-34646D02*
D03*
Y-33071D02*
D03*
Y-31496D02*
D03*
X-60236Y-34646D02*
D03*
Y-33071D02*
D03*
Y-31496D02*
D03*
X-58661Y-34646D02*
D03*
Y-33071D02*
D03*
Y-31496D02*
D03*
X-57087Y-34646D02*
D03*
Y-33071D02*
D03*
Y-31496D02*
D03*
X-55512Y-34646D02*
D03*
Y-33071D02*
D03*
Y-31496D02*
D03*
X-53937Y-34646D02*
D03*
Y-33071D02*
D03*
Y-31496D02*
D03*
X-52363Y-34646D02*
D03*
Y-33071D02*
D03*
Y-31496D02*
D03*
X-50787Y-34646D02*
D03*
Y-33071D02*
D03*
Y-31496D02*
D03*
X-49213Y-34646D02*
D03*
Y-33071D02*
D03*
Y-31496D02*
D03*
X-47638Y-34646D02*
D03*
Y-33071D02*
D03*
Y-31496D02*
D03*
X-46063Y-34646D02*
D03*
Y-33071D02*
D03*
Y-31496D02*
D03*
X-44488Y-34646D02*
D03*
Y-33071D02*
D03*
Y-31496D02*
D03*
X-42914Y-34646D02*
D03*
Y-33071D02*
D03*
Y-31496D02*
D03*
X-41339Y-34646D02*
D03*
Y-33071D02*
D03*
Y-31496D02*
D03*
X-39764Y-34646D02*
D03*
Y-33071D02*
D03*
Y-31496D02*
D03*
X3544Y-34646D02*
D03*
Y-33071D02*
D03*
Y-31496D02*
D03*
X5119Y-34646D02*
D03*
Y-33071D02*
D03*
Y-31496D02*
D03*
X6693Y-34646D02*
D03*
Y-33071D02*
D03*
Y-31496D02*
D03*
X8268Y-34646D02*
D03*
Y-33071D02*
D03*
Y-31496D02*
D03*
X9843Y-34646D02*
D03*
Y-33071D02*
D03*
Y-31496D02*
D03*
X11417Y-34646D02*
D03*
Y-33071D02*
D03*
Y-31496D02*
D03*
X12992Y-34646D02*
D03*
Y-33071D02*
D03*
Y-31496D02*
D03*
X14567Y-34646D02*
D03*
Y-33071D02*
D03*
Y-31496D02*
D03*
X16142Y-34646D02*
D03*
Y-33071D02*
D03*
Y-31496D02*
D03*
X17717Y-34646D02*
D03*
Y-33071D02*
D03*
Y-31496D02*
D03*
X19291Y-34646D02*
D03*
Y-33071D02*
D03*
Y-31496D02*
D03*
X20866Y-34646D02*
D03*
Y-33071D02*
D03*
Y-31496D02*
D03*
X22441Y-34646D02*
D03*
Y-33071D02*
D03*
Y-31496D02*
D03*
X24016Y-34646D02*
D03*
Y-33071D02*
D03*
Y-31496D02*
D03*
X25591Y-34646D02*
D03*
Y-33071D02*
D03*
Y-31496D02*
D03*
X27165Y-34646D02*
D03*
Y-33071D02*
D03*
Y-31496D02*
D03*
X28740Y-34646D02*
D03*
Y-33071D02*
D03*
Y-31496D02*
D03*
X30315Y-34646D02*
D03*
Y-33071D02*
D03*
Y-31496D02*
D03*
X31889Y-34646D02*
D03*
Y-33071D02*
D03*
Y-31496D02*
D03*
X33464Y-34646D02*
D03*
Y-33071D02*
D03*
Y-31496D02*
D03*
X35039Y-34646D02*
D03*
Y-33071D02*
D03*
Y-31496D02*
D03*
D21*
X165354Y-120079D02*
D03*
X141732D02*
D03*
D22*
X153543Y-138583D02*
D03*
D23*
X-20669Y-129921D02*
D03*
X-73819D02*
D03*
X20669D02*
D03*
X73819D02*
D03*
D24*
X-33071Y-153543D02*
D03*
X-61417D02*
D03*
X33071D02*
D03*
X61417D02*
D03*
D25*
X-29528Y-47244D02*
D03*
X-49213D02*
D03*
X-39370D02*
D03*
X-19685D02*
D03*
X-9843D02*
D03*
X-78740D02*
D03*
X-68898D02*
D03*
X-59055D02*
D03*
X-108268D02*
D03*
X-98425D02*
D03*
X-88583D02*
D03*
X88583D02*
D03*
X98425D02*
D03*
X108268D02*
D03*
X59055D02*
D03*
X68898D02*
D03*
X78740D02*
D03*
X9843D02*
D03*
X19685D02*
D03*
X39370D02*
D03*
X49213D02*
D03*
X29528D02*
D03*
D26*
X114173Y-74803D02*
D03*
Y-19685D02*
D03*
X-114173D02*
D03*
Y-74803D02*
D03*
D27*
X153543Y-114173D02*
D03*
X153543Y-125984D02*
D03*
X153543Y-118110D02*
D03*
Y-122047D02*
D03*
X149606D02*
D03*
Y-118110D02*
D03*
X149606Y-125984D02*
D03*
X149606Y-114173D02*
D03*
X110236Y-143701D02*
D03*
Y-147638D02*
D03*
X110236Y-92520D02*
D03*
X114173D02*
D03*
X118110D02*
D03*
X122047D02*
D03*
X125984D02*
D03*
Y-96457D02*
D03*
X122047D02*
D03*
Y-100394D02*
D03*
X118110Y-96457D02*
D03*
Y-100394D02*
D03*
X110236Y-96457D02*
D03*
Y-100394D02*
D03*
X-3937Y-112205D02*
D03*
X-7874Y-116142D02*
D03*
Y-112205D02*
D03*
X-3937Y-116142D02*
D03*
X7874D02*
D03*
X3937Y-112205D02*
D03*
Y-116142D02*
D03*
X0D02*
D03*
Y-112205D02*
D03*
X7874D02*
D03*
X-125984Y-129921D02*
D03*
X-122047Y-145669D02*
D03*
Y-141732D02*
D03*
Y-137795D02*
D03*
Y-133858D02*
D03*
Y-129921D02*
D03*
X-125984Y-133858D02*
D03*
Y-141732D02*
D03*
Y-145669D02*
D03*
Y-137795D02*
D03*
Y-98425D02*
D03*
Y-106299D02*
D03*
X-122047D02*
D03*
Y-102362D02*
D03*
X-125984D02*
D03*
X-122047Y-98425D02*
D03*
Y-110236D02*
D03*
X-125984Y-114173D02*
D03*
X-122047D02*
D03*
X-125984Y-110236D02*
D03*
X122047Y-139764D02*
D03*
Y-143701D02*
D03*
Y-147638D02*
D03*
Y-151575D02*
D03*
X125984D02*
D03*
Y-147638D02*
D03*
Y-143701D02*
D03*
Y-139764D02*
D03*
X127953Y-127953D02*
D03*
Y-116142D02*
D03*
Y-120079D02*
D03*
Y-124016D02*
D03*
X131890Y-120079D02*
D03*
Y-124016D02*
D03*
Y-116142D02*
D03*
X131890Y-127953D02*
D03*
D28*
X-94882Y-137795D02*
D03*
X-113779D02*
D03*
X-94882Y-106299D02*
D03*
X-113779D02*
D03*
X94882Y-137795D02*
D03*
X113779D02*
D03*
X94882Y-106299D02*
D03*
X113779D02*
D03*
D29*
X0Y-153813D02*
D03*
Y-125715D02*
D03*
M02*
