G04*
G04 #@! TF.GenerationSoftware,Altium Limited,Altium Designer,24.2.2 (26)*
G04*
G04 Layer_Color=2752767*
%FSLAX25Y25*%
%MOIN*%
G70*
G04*
G04 #@! TF.SameCoordinates,C0CDDABA-65D0-4B49-AD35-3B774CF07CDA*
G04*
G04*
G04 #@! TF.FilePolarity,Positive*
G04*
G01*
G75*
%ADD10C,0.01000*%
%ADD11C,0.00500*%
%ADD12C,0.00200*%
%ADD13C,0.00267*%
D10*
X-175197Y-143701D02*
G03*
X-171260Y-147638I3937J0D01*
G01*
X-171260Y-96457D02*
G03*
X-175197Y-100394I0J-3937D01*
G01*
X-137795Y-96457D02*
G03*
X-133858Y-92520I-0J3937D01*
G01*
X-133858Y-151575D02*
G03*
X-137795Y-147638I-3937J-0D01*
G01*
X-133858Y-165354D02*
G03*
X-129921Y-169291I3937J0D01*
G01*
X129921Y-169291D02*
G03*
X133858Y-165354I-0J3937D01*
G01*
X137795Y-147638D02*
G03*
X133858Y-151575I0J-3937D01*
G01*
X171260Y-147638D02*
G03*
X175197Y-143701I-0J3937D01*
G01*
Y-100394D02*
G03*
X171260Y-96457I-3937J-0D01*
G01*
X133858Y-92520D02*
G03*
X137795Y-96457I3937J0D01*
G01*
X133858Y-3937D02*
G03*
X129921Y-0I-3937J-0D01*
G01*
X98425Y0D02*
G03*
X94488Y-3937I0J-3937D01*
G01*
X-129921Y0D02*
G03*
X-133858Y-3937I0J-3937D01*
G01*
X-94488Y-3937D02*
G03*
X-98425Y-0I-3937J-0D01*
G01*
X90551Y-27559D02*
G03*
X94488Y-23622I-0J3937D01*
G01*
X-94488D02*
G03*
X-90551Y-27559I3937J0D01*
G01*
X-175197Y-143701D02*
Y-100394D01*
X-171260Y-147638D02*
X-137795D01*
X-171260Y-96457D02*
X-137795D01*
X-133858Y-165354D02*
Y-151575D01*
X-129921Y-169291D02*
X129921D01*
X133858Y-165354D02*
Y-151575D01*
X137795Y-147638D02*
X171260D01*
X175197Y-143701D02*
Y-100394D01*
X137795Y-96457D02*
X171274D01*
X-133858Y-3937D02*
X-133858Y-92520D01*
X133858D02*
X133858Y-3937D01*
X98425Y0D02*
X129921D01*
X94488Y-23622D02*
Y-3937D01*
X-129921Y0D02*
X-98425D01*
X-94488Y-23622D02*
Y-3937D01*
X-90551Y-27559D02*
X90551D01*
D11*
X195669Y-150079D02*
Y-90630D01*
D12*
X164954Y-120479D02*
Y-120879D01*
X165754D01*
Y-120479D01*
X166154D01*
Y-119679D01*
X165754D01*
Y-119279D01*
X164954D01*
Y-119679D01*
X164554D01*
Y-120479D01*
X164954D01*
X153143Y-138983D02*
Y-139383D01*
X153943D01*
Y-138983D01*
X154343D01*
Y-138183D01*
X153943D01*
Y-137783D01*
X153143D01*
Y-138183D01*
X152743D01*
Y-138983D01*
X153143D01*
X141332Y-120479D02*
Y-120879D01*
X142132D01*
Y-120479D01*
X142532D01*
Y-119679D01*
X142132D01*
Y-119279D01*
X141332D01*
Y-119679D01*
X140932D01*
Y-120479D01*
X141332D01*
X-20669Y-130721D02*
X-21469Y-129121D01*
X-19869D01*
X-20669Y-130721D01*
X-33071Y-154343D02*
X-32671Y-153943D01*
X-32271D01*
X-32671Y-153543D01*
X-32271Y-153143D01*
X-32671D01*
X-33071Y-152743D01*
X-33471Y-153143D01*
X-33871D01*
X-33471Y-153543D01*
X-33871Y-153943D01*
X-33471D01*
X-33071Y-154343D01*
X-61417D02*
X-61017Y-153943D01*
X-60617D01*
X-61017Y-153543D01*
X-60617Y-153143D01*
X-61017D01*
X-61417Y-152743D01*
X-61817Y-153143D01*
X-62217D01*
X-61817Y-153543D01*
X-62217Y-153943D01*
X-61817D01*
X-61417Y-154343D01*
X-73819Y-130721D02*
X-74619Y-129121D01*
X-73019D01*
X-73819Y-130721D01*
X20669D02*
X19869Y-129121D01*
X21469D01*
X20669Y-130721D01*
X33071Y-154343D02*
X33471Y-153943D01*
X33871D01*
X33471Y-153543D01*
X33871Y-153143D01*
X33471D01*
X33071Y-152743D01*
X32671Y-153143D01*
X32271D01*
X32671Y-153543D01*
X32271Y-153943D01*
X32671D01*
X33071Y-154343D01*
X61417D02*
X61817Y-153943D01*
X62217D01*
X61817Y-153543D01*
X62217Y-153143D01*
X61817D01*
X61417Y-152743D01*
X61017Y-153143D01*
X60617D01*
X61017Y-153543D01*
X60617Y-153943D01*
X61017D01*
X61417Y-154343D01*
X73819Y-130721D02*
X73019Y-129121D01*
X74619D01*
X73819Y-130721D01*
X113373Y-75603D02*
Y-74003D01*
X114973D01*
Y-75603D01*
X113373D01*
Y-20485D02*
Y-18885D01*
X114973D01*
Y-20485D01*
X113373D01*
X-114973D02*
Y-18885D01*
X-113373D01*
Y-20485D01*
X-114973D01*
Y-75603D02*
Y-74003D01*
X-113373D01*
Y-75603D01*
X-114973D01*
X152743Y-114973D02*
X153143Y-114173D01*
X152743Y-113373D01*
X153543Y-113773D01*
X154343Y-113373D01*
X153943Y-114173D01*
X154343Y-114973D01*
X153543Y-114573D01*
X152743Y-114973D01*
X152743Y-126784D02*
X153143Y-125984D01*
X152743Y-125184D01*
X153543Y-125584D01*
X154343Y-125184D01*
X153943Y-125984D01*
X154343Y-126784D01*
X153543Y-126384D01*
X152743Y-126784D01*
X152743Y-118910D02*
X153143Y-118110D01*
X152743Y-117310D01*
X153543Y-117710D01*
X154343Y-117310D01*
X153943Y-118110D01*
X154343Y-118910D01*
X153543Y-118510D01*
X152743Y-118910D01*
Y-122847D02*
X153143Y-122047D01*
X152743Y-121247D01*
X153543Y-121647D01*
X154343Y-121247D01*
X153943Y-122047D01*
X154343Y-122847D01*
X153543Y-122447D01*
X152743Y-122847D01*
X148806D02*
X149206Y-122047D01*
X148806Y-121247D01*
X149606Y-121647D01*
X150406Y-121247D01*
X150006Y-122047D01*
X150406Y-122847D01*
X149606Y-122447D01*
X148806Y-122847D01*
Y-118910D02*
X149206Y-118110D01*
X148806Y-117310D01*
X149606Y-117710D01*
X150406Y-117310D01*
X150006Y-118110D01*
X150406Y-118910D01*
X149606Y-118510D01*
X148806Y-118910D01*
X148806Y-126784D02*
X149206Y-125984D01*
X148806Y-125184D01*
X149606Y-125584D01*
X150406Y-125184D01*
X150006Y-125984D01*
X150406Y-126784D01*
X149606Y-126384D01*
X148806Y-126784D01*
X148806Y-114973D02*
X149206Y-114173D01*
X148806Y-113373D01*
X149606Y-113773D01*
X150406Y-113373D01*
X150006Y-114173D01*
X150406Y-114973D01*
X149606Y-114573D01*
X148806Y-114973D01*
X109436Y-144501D02*
X109836Y-143701D01*
X109436Y-142901D01*
X110236Y-143301D01*
X111036Y-142901D01*
X110636Y-143701D01*
X111036Y-144501D01*
X110236Y-144101D01*
X109436Y-144501D01*
Y-148438D02*
X109836Y-147638D01*
X109436Y-146838D01*
X110236Y-147238D01*
X111036Y-146838D01*
X110636Y-147638D01*
X111036Y-148438D01*
X110236Y-148038D01*
X109436Y-148438D01*
X109436Y-93320D02*
X109836Y-92520D01*
X109436Y-91720D01*
X110236Y-92120D01*
X111036Y-91720D01*
X110636Y-92520D01*
X111036Y-93320D01*
X110236Y-92920D01*
X109436Y-93320D01*
X113373D02*
X113773Y-92520D01*
X113373Y-91720D01*
X114173Y-92120D01*
X114973Y-91720D01*
X114573Y-92520D01*
X114973Y-93320D01*
X114173Y-92920D01*
X113373Y-93320D01*
X117310D02*
X117710Y-92520D01*
X117310Y-91720D01*
X118110Y-92120D01*
X118910Y-91720D01*
X118510Y-92520D01*
X118910Y-93320D01*
X118110Y-92920D01*
X117310Y-93320D01*
X121247D02*
X121647Y-92520D01*
X121247Y-91720D01*
X122047Y-92120D01*
X122847Y-91720D01*
X122447Y-92520D01*
X122847Y-93320D01*
X122047Y-92920D01*
X121247Y-93320D01*
X125184D02*
X125584Y-92520D01*
X125184Y-91720D01*
X125984Y-92120D01*
X126784Y-91720D01*
X126384Y-92520D01*
X126784Y-93320D01*
X125984Y-92920D01*
X125184Y-93320D01*
Y-97257D02*
X125584Y-96457D01*
X125184Y-95657D01*
X125984Y-96057D01*
X126784Y-95657D01*
X126384Y-96457D01*
X126784Y-97257D01*
X125984Y-96857D01*
X125184Y-97257D01*
X121247D02*
X121647Y-96457D01*
X121247Y-95657D01*
X122047Y-96057D01*
X122847Y-95657D01*
X122447Y-96457D01*
X122847Y-97257D01*
X122047Y-96857D01*
X121247Y-97257D01*
Y-101194D02*
X121647Y-100394D01*
X121247Y-99594D01*
X122047Y-99994D01*
X122847Y-99594D01*
X122447Y-100394D01*
X122847Y-101194D01*
X122047Y-100794D01*
X121247Y-101194D01*
X117310Y-97257D02*
X117710Y-96457D01*
X117310Y-95657D01*
X118110Y-96057D01*
X118910Y-95657D01*
X118510Y-96457D01*
X118910Y-97257D01*
X118110Y-96857D01*
X117310Y-97257D01*
Y-101194D02*
X117710Y-100394D01*
X117310Y-99594D01*
X118110Y-99994D01*
X118910Y-99594D01*
X118510Y-100394D01*
X118910Y-101194D01*
X118110Y-100794D01*
X117310Y-101194D01*
X109436Y-97257D02*
X109836Y-96457D01*
X109436Y-95657D01*
X110236Y-96057D01*
X111036Y-95657D01*
X110636Y-96457D01*
X111036Y-97257D01*
X110236Y-96857D01*
X109436Y-97257D01*
Y-101194D02*
X109836Y-100394D01*
X109436Y-99594D01*
X110236Y-99994D01*
X111036Y-99594D01*
X110636Y-100394D01*
X111036Y-101194D01*
X110236Y-100794D01*
X109436Y-101194D01*
X-4737Y-113005D02*
X-4337Y-112205D01*
X-4737Y-111405D01*
X-3937Y-111805D01*
X-3137Y-111405D01*
X-3537Y-112205D01*
X-3137Y-113005D01*
X-3937Y-112605D01*
X-4737Y-113005D01*
X-8674Y-116942D02*
X-8274Y-116142D01*
X-8674Y-115342D01*
X-7874Y-115742D01*
X-7074Y-115342D01*
X-7474Y-116142D01*
X-7074Y-116942D01*
X-7874Y-116542D01*
X-8674Y-116942D01*
Y-113005D02*
X-8274Y-112205D01*
X-8674Y-111405D01*
X-7874Y-111805D01*
X-7074Y-111405D01*
X-7474Y-112205D01*
X-7074Y-113005D01*
X-7874Y-112605D01*
X-8674Y-113005D01*
X-4737Y-116942D02*
X-4337Y-116142D01*
X-4737Y-115342D01*
X-3937Y-115742D01*
X-3137Y-115342D01*
X-3537Y-116142D01*
X-3137Y-116942D01*
X-3937Y-116542D01*
X-4737Y-116942D01*
X7074D02*
X7474Y-116142D01*
X7074Y-115342D01*
X7874Y-115742D01*
X8674Y-115342D01*
X8274Y-116142D01*
X8674Y-116942D01*
X7874Y-116542D01*
X7074Y-116942D01*
X3137Y-113005D02*
X3537Y-112205D01*
X3137Y-111405D01*
X3937Y-111805D01*
X4737Y-111405D01*
X4337Y-112205D01*
X4737Y-113005D01*
X3937Y-112605D01*
X3137Y-113005D01*
Y-116942D02*
X3537Y-116142D01*
X3137Y-115342D01*
X3937Y-115742D01*
X4737Y-115342D01*
X4337Y-116142D01*
X4737Y-116942D01*
X3937Y-116542D01*
X3137Y-116942D01*
X-800D02*
X-400Y-116142D01*
X-800Y-115342D01*
X0Y-115742D01*
X800Y-115342D01*
X400Y-116142D01*
X800Y-116942D01*
X0Y-116542D01*
X-800Y-116942D01*
Y-113005D02*
X-400Y-112205D01*
X-800Y-111405D01*
X0Y-111805D01*
X800Y-111405D01*
X400Y-112205D01*
X800Y-113005D01*
X0Y-112605D01*
X-800Y-113005D01*
X7074D02*
X7474Y-112205D01*
X7074Y-111405D01*
X7874Y-111805D01*
X8674Y-111405D01*
X8274Y-112205D01*
X8674Y-113005D01*
X7874Y-112605D01*
X7074Y-113005D01*
X-126784Y-130721D02*
X-126384Y-129921D01*
X-126784Y-129121D01*
X-125984Y-129521D01*
X-125184Y-129121D01*
X-125584Y-129921D01*
X-125184Y-130721D01*
X-125984Y-130321D01*
X-126784Y-130721D01*
X-122847Y-146469D02*
X-122447Y-145669D01*
X-122847Y-144869D01*
X-122047Y-145269D01*
X-121247Y-144869D01*
X-121647Y-145669D01*
X-121247Y-146469D01*
X-122047Y-146069D01*
X-122847Y-146469D01*
Y-142532D02*
X-122447Y-141732D01*
X-122847Y-140932D01*
X-122047Y-141332D01*
X-121247Y-140932D01*
X-121647Y-141732D01*
X-121247Y-142532D01*
X-122047Y-142132D01*
X-122847Y-142532D01*
Y-138595D02*
X-122447Y-137795D01*
X-122847Y-136995D01*
X-122047Y-137395D01*
X-121247Y-136995D01*
X-121647Y-137795D01*
X-121247Y-138595D01*
X-122047Y-138195D01*
X-122847Y-138595D01*
Y-134658D02*
X-122447Y-133858D01*
X-122847Y-133058D01*
X-122047Y-133458D01*
X-121247Y-133058D01*
X-121647Y-133858D01*
X-121247Y-134658D01*
X-122047Y-134258D01*
X-122847Y-134658D01*
Y-130721D02*
X-122447Y-129921D01*
X-122847Y-129121D01*
X-122047Y-129521D01*
X-121247Y-129121D01*
X-121647Y-129921D01*
X-121247Y-130721D01*
X-122047Y-130321D01*
X-122847Y-130721D01*
X-126784Y-134658D02*
X-126384Y-133858D01*
X-126784Y-133058D01*
X-125984Y-133458D01*
X-125184Y-133058D01*
X-125584Y-133858D01*
X-125184Y-134658D01*
X-125984Y-134258D01*
X-126784Y-134658D01*
Y-142532D02*
X-126384Y-141732D01*
X-126784Y-140932D01*
X-125984Y-141332D01*
X-125184Y-140932D01*
X-125584Y-141732D01*
X-125184Y-142532D01*
X-125984Y-142132D01*
X-126784Y-142532D01*
Y-146469D02*
X-126384Y-145669D01*
X-126784Y-144869D01*
X-125984Y-145269D01*
X-125184Y-144869D01*
X-125584Y-145669D01*
X-125184Y-146469D01*
X-125984Y-146069D01*
X-126784Y-146469D01*
Y-138595D02*
X-126384Y-137795D01*
X-126784Y-136995D01*
X-125984Y-137395D01*
X-125184Y-136995D01*
X-125584Y-137795D01*
X-125184Y-138595D01*
X-125984Y-138195D01*
X-126784Y-138595D01*
Y-99225D02*
X-126384Y-98425D01*
X-126784Y-97625D01*
X-125984Y-98025D01*
X-125184Y-97625D01*
X-125584Y-98425D01*
X-125184Y-99225D01*
X-125984Y-98825D01*
X-126784Y-99225D01*
Y-107099D02*
X-126384Y-106299D01*
X-126784Y-105499D01*
X-125984Y-105899D01*
X-125184Y-105499D01*
X-125584Y-106299D01*
X-125184Y-107099D01*
X-125984Y-106699D01*
X-126784Y-107099D01*
X-122847D02*
X-122447Y-106299D01*
X-122847Y-105499D01*
X-122047Y-105899D01*
X-121247Y-105499D01*
X-121647Y-106299D01*
X-121247Y-107099D01*
X-122047Y-106699D01*
X-122847Y-107099D01*
Y-103162D02*
X-122447Y-102362D01*
X-122847Y-101562D01*
X-122047Y-101962D01*
X-121247Y-101562D01*
X-121647Y-102362D01*
X-121247Y-103162D01*
X-122047Y-102762D01*
X-122847Y-103162D01*
X-126784D02*
X-126384Y-102362D01*
X-126784Y-101562D01*
X-125984Y-101962D01*
X-125184Y-101562D01*
X-125584Y-102362D01*
X-125184Y-103162D01*
X-125984Y-102762D01*
X-126784Y-103162D01*
X-122847Y-99225D02*
X-122447Y-98425D01*
X-122847Y-97625D01*
X-122047Y-98025D01*
X-121247Y-97625D01*
X-121647Y-98425D01*
X-121247Y-99225D01*
X-122047Y-98825D01*
X-122847Y-99225D01*
Y-111036D02*
X-122447Y-110236D01*
X-122847Y-109436D01*
X-122047Y-109836D01*
X-121247Y-109436D01*
X-121647Y-110236D01*
X-121247Y-111036D01*
X-122047Y-110636D01*
X-122847Y-111036D01*
X-126784Y-114973D02*
X-126384Y-114173D01*
X-126784Y-113373D01*
X-125984Y-113773D01*
X-125184Y-113373D01*
X-125584Y-114173D01*
X-125184Y-114973D01*
X-125984Y-114573D01*
X-126784Y-114973D01*
X-122847D02*
X-122447Y-114173D01*
X-122847Y-113373D01*
X-122047Y-113773D01*
X-121247Y-113373D01*
X-121647Y-114173D01*
X-121247Y-114973D01*
X-122047Y-114573D01*
X-122847Y-114973D01*
X-126784Y-111036D02*
X-126384Y-110236D01*
X-126784Y-109436D01*
X-125984Y-109836D01*
X-125184Y-109436D01*
X-125584Y-110236D01*
X-125184Y-111036D01*
X-125984Y-110636D01*
X-126784Y-111036D01*
X121247Y-140564D02*
X121647Y-139764D01*
X121247Y-138964D01*
X122047Y-139364D01*
X122847Y-138964D01*
X122447Y-139764D01*
X122847Y-140564D01*
X122047Y-140164D01*
X121247Y-140564D01*
Y-144501D02*
X121647Y-143701D01*
X121247Y-142901D01*
X122047Y-143301D01*
X122847Y-142901D01*
X122447Y-143701D01*
X122847Y-144501D01*
X122047Y-144101D01*
X121247Y-144501D01*
Y-148438D02*
X121647Y-147638D01*
X121247Y-146838D01*
X122047Y-147238D01*
X122847Y-146838D01*
X122447Y-147638D01*
X122847Y-148438D01*
X122047Y-148038D01*
X121247Y-148438D01*
Y-152375D02*
X121647Y-151575D01*
X121247Y-150775D01*
X122047Y-151175D01*
X122847Y-150775D01*
X122447Y-151575D01*
X122847Y-152375D01*
X122047Y-151975D01*
X121247Y-152375D01*
X125184D02*
X125584Y-151575D01*
X125184Y-150775D01*
X125984Y-151175D01*
X126784Y-150775D01*
X126384Y-151575D01*
X126784Y-152375D01*
X125984Y-151975D01*
X125184Y-152375D01*
Y-148438D02*
X125584Y-147638D01*
X125184Y-146838D01*
X125984Y-147238D01*
X126784Y-146838D01*
X126384Y-147638D01*
X126784Y-148438D01*
X125984Y-148038D01*
X125184Y-148438D01*
Y-144501D02*
X125584Y-143701D01*
X125184Y-142901D01*
X125984Y-143301D01*
X126784Y-142901D01*
X126384Y-143701D01*
X126784Y-144501D01*
X125984Y-144101D01*
X125184Y-144501D01*
Y-140564D02*
X125584Y-139764D01*
X125184Y-138964D01*
X125984Y-139364D01*
X126784Y-138964D01*
X126384Y-139764D01*
X126784Y-140564D01*
X125984Y-140164D01*
X125184Y-140564D01*
X127153Y-128753D02*
X127553Y-127953D01*
X127153Y-127153D01*
X127953Y-127553D01*
X128753Y-127153D01*
X128353Y-127953D01*
X128753Y-128753D01*
X127953Y-128353D01*
X127153Y-128753D01*
Y-116942D02*
X127553Y-116142D01*
X127153Y-115342D01*
X127953Y-115742D01*
X128753Y-115342D01*
X128353Y-116142D01*
X128753Y-116942D01*
X127953Y-116542D01*
X127153Y-116942D01*
Y-120879D02*
X127553Y-120079D01*
X127153Y-119279D01*
X127953Y-119679D01*
X128753Y-119279D01*
X128353Y-120079D01*
X128753Y-120879D01*
X127953Y-120479D01*
X127153Y-120879D01*
Y-124816D02*
X127553Y-124016D01*
X127153Y-123216D01*
X127953Y-123616D01*
X128753Y-123216D01*
X128353Y-124016D01*
X128753Y-124816D01*
X127953Y-124416D01*
X127153Y-124816D01*
X131090Y-120879D02*
X131490Y-120079D01*
X131090Y-119279D01*
X131890Y-119679D01*
X132690Y-119279D01*
X132290Y-120079D01*
X132690Y-120879D01*
X131890Y-120479D01*
X131090Y-120879D01*
Y-124816D02*
X131490Y-124016D01*
X131090Y-123216D01*
X131890Y-123616D01*
X132690Y-123216D01*
X132290Y-124016D01*
X132690Y-124816D01*
X131890Y-124416D01*
X131090Y-124816D01*
Y-116942D02*
X131490Y-116142D01*
X131090Y-115342D01*
X131890Y-115742D01*
X132690Y-115342D01*
X132290Y-116142D01*
X132690Y-116942D01*
X131890Y-116542D01*
X131090Y-116942D01*
X131090Y-128753D02*
X131490Y-127953D01*
X131090Y-127153D01*
X131890Y-127553D01*
X132690Y-127153D01*
X132290Y-127953D01*
X132690Y-128753D01*
X131890Y-128353D01*
X131090Y-128753D01*
D13*
X-28728Y-47244D02*
G03*
X-28728Y-47244I-800J0D01*
G01*
X-48413D02*
G03*
X-48413Y-47244I-800J0D01*
G01*
X-38570D02*
G03*
X-38570Y-47244I-800J0D01*
G01*
X-18885D02*
G03*
X-18885Y-47244I-800J0D01*
G01*
X-9042D02*
G03*
X-9042Y-47244I-800J0D01*
G01*
X-77940D02*
G03*
X-77940Y-47244I-800J0D01*
G01*
X-68098D02*
G03*
X-68098Y-47244I-800J0D01*
G01*
X-58255D02*
G03*
X-58255Y-47244I-800J0D01*
G01*
X-107468D02*
G03*
X-107468Y-47244I-800J0D01*
G01*
X-97625D02*
G03*
X-97625Y-47244I-800J0D01*
G01*
X-87783D02*
G03*
X-87783Y-47244I-800J0D01*
G01*
X89383D02*
G03*
X89383Y-47244I-800J0D01*
G01*
X99225D02*
G03*
X99225Y-47244I-800J0D01*
G01*
X109068D02*
G03*
X109068Y-47244I-800J0D01*
G01*
X59855D02*
G03*
X59855Y-47244I-800J0D01*
G01*
X69698D02*
G03*
X69698Y-47244I-800J0D01*
G01*
X79540D02*
G03*
X79540Y-47244I-800J0D01*
G01*
X10643D02*
G03*
X10643Y-47244I-800J0D01*
G01*
X20485D02*
G03*
X20485Y-47244I-800J0D01*
G01*
X40170D02*
G03*
X40170Y-47244I-800J0D01*
G01*
X50013D02*
G03*
X50013Y-47244I-800J0D01*
G01*
X30328D02*
G03*
X30328Y-47244I-800J0D01*
G01*
M02*
